<?xml version="1.0" encoding="UTF-8"?><svg xmlns="http://www.w3.org/2000/svg" viewBox="0 0 396.83 207.58"><defs><style>.b,.c,.d{mix-blend-mode:multiply;}.b,.e{fill:#f0f;}.f,.d{fill:aqua;}.g{isolation:isolate;}.c{opacity:.8;}</style></defs><g class="g"><g id="a"><g><g><g class="c"><polygon class="e" points="70.29 128.18 44.71 128.18 42.37 133.72 67.96 133.72 70.29 128.18"/><polygon class="e" points="90.05 148.02 61.92 148.02 66.09 138.14 40.5 138.14 36.32 148.02 36.32 173.36 90.05 173.36 90.05 205.55 117.43 205.55 117.43 173.36 130.61 173.36 130.61 148.02 117.43 148.02 117.43 138.14 90.05 138.14 90.05 148.02"/><rect class="e" x="90.05" y="128.18" width="27.37" height="5.53"/><rect class="e" x="153.67" y="128.18" width="27.88" height="5.53"/><rect class="e" x="210.45" y="128.18" width="27.88" height="5.53"/><path class="e" d="M210.45,164.75c0,12.67-5.58,17.49-14.45,17.49s-14.45-4.82-14.45-17.49v-26.6h-27.88v24.83c0,28.39,14.95,44.61,42.33,44.61s42.33-16.22,42.33-44.61v-24.83h-27.88v26.6Z"/><rect class="e" x="316.14" y="128.18" width="27.37" height="5.53"/><path class="e" d="M91.96,138.14h27.37v-4.43h-27.37v4.43Zm63.62,0h27.88v-4.43h-27.88v4.43Zm-113.18,0h25.59l1.87-4.43h-25.59l-1.87,4.43Zm275.64-4.43v4.43h27.37v-4.43h-27.37Zm-49.56,4.43h25.59l1.87-4.43h-25.59l-1.87,4.43Zm-56.13,0h27.88v-4.43h-27.88v4.43Z"/><polygon class="e" points="316.14 148.02 288 148.02 292.17 138.14 266.58 138.14 262.41 148.02 262.41 173.36 316.14 173.36 316.14 205.55 343.51 205.55 343.51 173.36 356.69 173.36 356.69 148.02 343.51 148.02 343.51 138.14 316.14 138.14 316.14 148.02"/><polygon class="e" points="270.79 128.18 268.45 133.72 294.04 133.72 296.38 128.18 270.79 128.18"/><path class="e" d="M41.45,128.18h25.58l8.64-20.48h-25.57l-8.66,20.48Zm45.34,0h27.37v-20.48h-27.37v20.48Zm63.62,0h27.88v-20.48h-27.88v20.48Zm162.47-20.48v20.48h27.37v-20.48h-27.37Zm-45.34,20.48h25.58l8.64-20.48h-25.57l-8.66,20.48Zm-60.35,0h27.88v-20.48h-27.88v20.48Z"/><g><polygon class="e" points="117.43 28.13 87.01 28.13 79.52 45.86 117.43 45.86 117.43 28.13"/><polygon class="e" points="76.01 45.86 70.02 60.02 113.92 60.02 113.92 45.86 76.01 45.86"/><polygon class="e" points="53.37 107.71 78.93 107.71 90.05 81.36 90.05 107.71 117.43 107.71 117.43 60.02 73.53 60.02 53.37 107.71"/><path class="e" d="M155.39,45.86c-2.12,4.12-3.6,8.86-4.43,14.16h28.38c2.13-6.07,6.78-8.57,13.14-8.57s11.01,2.5,13.14,8.57h28.38c-.83-5.3-2.31-10.03-4.43-14.16h-74.19Z"/><path class="e" d="M153.67,70.71v36.99h27.88v-38.77c0-3.59,.46-6.53,1.3-8.92h-28.38c-.53,3.34-.8,6.91-.8,10.7Z"/><path class="e" d="M210.45,68.94v38.77h27.88v-36.99c0-3.79-.27-7.35-.8-10.7h-28.38c.84,2.4,1.3,5.33,1.3,8.92Z"/><path class="e" d="M196,26.1c-17.94,0-30.54,6.97-37.1,19.75h74.19c-6.56-12.79-19.16-19.75-37.1-19.75Z"/><polygon class="e" points="279.45 107.71 305.02 107.71 316.14 81.36 316.14 107.71 343.51 107.71 343.51 60.02 299.62 60.02 279.45 107.71"/><polygon class="e" points="302.09 45.86 296.11 60.02 340 60.02 340 45.86 302.09 45.86"/><polygon class="e" points="343.51 28.13 313.1 28.13 305.6 45.86 343.51 45.86 343.51 28.13"/></g></g><g class="c"><polygon class="f" points="62.63 128.18 37.05 128.18 34.71 133.72 60.3 133.72 62.63 128.18"/><polygon class="f" points="82.39 148.02 54.26 148.02 58.43 138.14 32.84 138.14 28.66 148.02 28.66 173.36 82.39 173.36 82.39 205.55 109.77 205.55 109.77 173.36 122.95 173.36 122.95 148.02 109.77 148.02 109.77 138.14 82.39 138.14 82.39 148.02"/><rect class="f" x="82.39" y="128.18" width="27.37" height="5.53"/><rect class="f" x="146.01" y="128.18" width="27.88" height="5.53"/><rect class="f" x="202.79" y="128.18" width="27.88" height="5.53"/><path class="f" d="M202.79,164.75c0,12.67-5.58,17.49-14.45,17.49s-14.45-4.82-14.45-17.49v-26.6h-27.88v24.83c0,28.39,14.95,44.61,42.33,44.61s42.33-16.22,42.33-44.61v-24.83h-27.88v26.6Z"/><rect class="f" x="308.48" y="128.18" width="27.37" height="5.53"/><path class="f" d="M84.3,138.14h27.37v-4.43h-27.37v4.43Zm63.62,0h27.88v-4.43h-27.88v4.43Zm-113.18,0h25.59l1.87-4.43h-25.59l-1.87,4.43Zm275.64-4.43v4.43h27.37v-4.43h-27.37Zm-49.56,4.43h25.59l1.87-4.43h-25.59l-1.87,4.43Zm-56.13,0h27.88v-4.43h-27.88v4.43Z"/><polygon class="f" points="308.48 148.02 280.34 148.02 284.51 138.14 258.92 138.14 254.75 148.02 254.75 173.36 308.48 173.36 308.48 205.55 335.85 205.55 335.85 173.36 349.03 173.36 349.03 148.02 335.85 148.02 335.85 138.14 308.48 138.14 308.48 148.02"/><polygon class="f" points="263.13 128.18 260.79 133.72 286.38 133.72 288.72 128.18 263.13 128.18"/><path class="f" d="M33.79,128.18h25.58l8.64-20.48h-25.57l-8.66,20.48Zm45.34,0h27.37v-20.48h-27.37v20.48Zm63.62,0h27.88v-20.48h-27.88v20.48Zm162.47-20.48v20.48h27.37v-20.48h-27.37Zm-45.34,20.48h25.58l8.64-20.48h-25.57l-8.66,20.48Zm-60.35,0h27.88v-20.48h-27.88v20.48Z"/><g><polygon class="f" points="109.77 28.13 79.35 28.13 71.86 45.86 109.77 45.86 109.77 28.13"/><polygon class="f" points="68.35 45.86 62.36 60.02 106.26 60.02 106.26 45.86 68.35 45.86"/><polygon class="f" points="45.71 107.71 71.27 107.71 82.39 81.36 82.39 107.71 109.77 107.71 109.77 60.02 65.87 60.02 45.71 107.71"/><path class="f" d="M147.73,45.86c-2.12,4.12-3.6,8.86-4.43,14.16h28.38c2.13-6.07,6.78-8.57,13.14-8.57s11.01,2.5,13.14,8.57h28.38c-.83-5.3-2.31-10.03-4.43-14.16h-74.19Z"/><path class="f" d="M146.01,70.71v36.99h27.88v-38.77c0-3.59,.46-6.53,1.3-8.92h-28.38c-.53,3.34-.8,6.91-.8,10.7Z"/><path class="f" d="M202.79,68.94v38.77h27.88v-36.99c0-3.79-.27-7.35-.8-10.7h-28.38c.84,2.4,1.3,5.33,1.3,8.92Z"/><path class="f" d="M188.34,26.1c-17.94,0-30.54,6.97-37.1,19.75h74.19c-6.56-12.79-19.16-19.75-37.1-19.75Z"/><polygon class="f" points="271.79 107.71 297.36 107.71 308.48 81.36 308.48 107.71 335.85 107.71 335.85 60.02 291.96 60.02 271.79 107.71"/><polygon class="f" points="294.43 45.86 288.45 60.02 332.34 60.02 332.34 45.86 294.43 45.86"/><polygon class="f" points="335.85 28.13 305.44 28.13 297.94 45.86 335.85 45.86 335.85 28.13"/></g></g><g class="c"><polygon points="68.1 128.18 42.52 128.18 40.18 133.72 65.77 133.72 68.1 128.18"/><polygon points="87.86 148.02 59.73 148.02 63.9 138.14 38.31 138.14 34.13 148.02 34.13 173.36 87.86 173.36 87.86 205.55 115.24 205.55 115.24 173.36 128.42 173.36 128.42 148.02 115.24 148.02 115.24 138.14 87.86 138.14 87.86 148.02"/><rect x="87.86" y="128.18" width="27.37" height="5.53"/><rect x="151.48" y="128.18" width="27.88" height="5.53"/><rect x="208.26" y="128.18" width="27.88" height="5.53"/><path d="M208.26,164.75c0,12.67-5.58,17.49-14.45,17.49s-14.45-4.82-14.45-17.49v-26.6h-27.88v24.83c0,28.39,14.95,44.61,42.33,44.61s42.33-16.22,42.33-44.61v-24.83h-27.88v26.6Z"/><rect x="313.95" y="128.18" width="27.37" height="5.53"/><path d="M89.77,138.14h27.37v-4.43h-27.37v4.43Zm63.62,0h27.88v-4.43h-27.88v4.43Zm-113.18,0h25.59l1.87-4.43h-25.59l-1.87,4.43Zm275.64-4.43v4.43h27.37v-4.43h-27.37Zm-49.56,4.43h25.59l1.87-4.43h-25.59l-1.87,4.43Zm-56.13,0h27.88v-4.43h-27.88v4.43Z"/><polygon points="313.95 148.02 285.82 148.02 289.98 138.14 264.39 138.14 260.22 148.02 260.22 173.36 313.95 173.36 313.95 205.55 341.32 205.55 341.32 173.36 354.5 173.36 354.5 148.02 341.32 148.02 341.32 138.14 313.95 138.14 313.95 148.02"/><polygon points="268.6 128.18 266.26 133.72 291.85 133.72 294.19 128.18 268.6 128.18"/><path d="M38.94,129.35h25.58l8.64-20.48h-25.57l-8.66,20.48Zm45.34,0h27.37v-20.48h-27.37v20.48Zm63.62,0h27.88v-20.48h-27.88v20.48Zm162.47-20.48v20.48h27.37v-20.48h-27.37Zm-45.34,20.48h25.58l8.64-20.48h-25.57l-8.66,20.48Zm-60.35,0h27.88v-20.48h-27.88v20.48Z"/><g><polygon points="115.24 28.13 84.82 28.13 77.33 45.86 115.24 45.86 115.24 28.13"/><polygon points="73.82 45.86 67.83 60.02 111.73 60.02 111.73 45.86 73.82 45.86"/><polygon points="51.18 107.71 76.74 107.71 87.86 81.36 87.86 107.71 115.24 107.71 115.24 60.02 71.34 60.02 51.18 107.71"/><path d="M153.2,45.86c-2.12,4.12-3.6,8.86-4.43,14.16h28.38c2.13-6.07,6.78-8.57,13.14-8.57s11.01,2.5,13.14,8.57h28.38c-.83-5.3-2.31-10.03-4.43-14.16h-74.19Z"/><path d="M151.48,70.71v36.99h27.88v-38.77c0-3.59,.46-6.53,1.3-8.92h-28.38c-.53,3.34-.8,6.91-.8,10.7Z"/><path d="M208.26,68.94v38.77h27.88v-36.99c0-3.79-.27-7.35-.8-10.7h-28.38c.84,2.4,1.3,5.33,1.3,8.92Z"/><path d="M193.81,26.1c-17.94,0-30.54,6.97-37.1,19.75h74.19c-6.56-12.79-19.16-19.75-37.1-19.75Z"/><polygon points="277.26 107.71 302.83 107.71 313.95 81.36 313.95 107.71 341.32 107.71 341.32 60.02 297.43 60.02 277.26 107.71"/><polygon points="299.9 45.86 293.92 60.02 337.81 60.02 337.81 45.86 299.9 45.86"/><polygon points="341.32 28.13 310.91 28.13 303.41 45.86 341.32 45.86 341.32 28.13"/></g></g></g><rect class="d" x="256.35" y="184.07" width="72.8" height="5.83"/><rect class="b" x="295.36" y="187.58" width="20.96" height="8.46"/><rect class="d" x="92.58" y="112.72" width="72.8" height="5.83"/><rect class="b" x="131.59" y="116.23" width="20.96" height="8.46"/><rect class="d" x="13.04" y="170.48" width="39.92" height="3.2"/><rect class="b" x="34.43" y="172.41" width="11.49" height="4.64"/><rect class="d" x="355.95" y="74.41" width="25.75" height="5.58"/><rect class="b" x="371.08" y="77.05" width="25.75" height="5.58"/><g><rect class="d" x="151.65" width="133.81" height="3.64" transform="translate(437.1 3.64) rotate(180)"/><rect class="b" x="141.68" y="1.61" width="16.04" height="5.58" transform="translate(299.4 8.8) rotate(180)"/></g><g><rect class="b" x="9.97" y="80.77" width="114.57" height="3.64" transform="translate(134.51 165.19) rotate(180)"/><rect class="d" y="82.38" width="16.04" height="5.58" transform="translate(16.04 170.34) rotate(180)"/></g></g></g></g></svg>